<?xml version="1.0" encoding="utf-8"?>
<!-- Generator: Adobe Illustrator 16.0.4, SVG Export Plug-In . SVG Version: 6.00 Build 0)  -->
<!DOCTYPE svg PUBLIC "-//W3C//DTD SVG 1.1//EN" "http://www.w3.org/Graphics/SVG/1.1/DTD/svg11.dtd">
<svg version="1.1" id="Layer_1" xmlns="http://www.w3.org/2000/svg" xmlns:xlink="http://www.w3.org/1999/xlink" x="0px" y="0px"
     width="200px" height="28px" viewBox="0 0 200 28" enable-background="new 0 0 200 28" xml:space="preserve">
<g>
    <path fill="#CE4B27" d="M8.312,23.157c-1.493,0-2.957-0.253-4.394-0.759C2.481,21.895,1.176,21.118,0,20.07l2.547-3.021
        c0.896,0.721,1.813,1.295,2.756,1.721c0.941,0.426,1.973,0.641,3.092,0.641c0.896,0,1.59-0.163,2.085-0.487
        c0.494-0.325,0.741-0.774,0.741-1.349v-0.057c0-0.277-0.051-0.522-0.154-0.736c-0.103-0.215-0.3-0.412-0.589-0.6
        c-0.29-0.185-0.692-0.369-1.207-0.556c-0.514-0.187-1.183-0.38-2.006-0.584c-0.992-0.259-1.89-0.533-2.694-0.82
        c-0.805-0.286-1.487-0.649-2.048-1.084c-0.562-0.436-0.996-0.979-1.305-1.628c-0.309-0.648-0.463-1.455-0.463-2.42V9.036
        c0-0.89,0.167-1.692,0.5-2.406S2.058,5.3,2.66,4.78c0.603-0.519,1.322-0.917,2.159-1.195c0.836-0.278,1.758-0.416,2.766-0.416
        c1.437,0,2.756,0.211,3.96,0.633c1.203,0.423,2.309,1.029,3.316,1.819l-2.239,3.211c-0.877-0.593-1.735-1.06-2.574-1.402
        c-0.84-0.342-1.68-0.514-2.519-0.514c-0.839,0-1.47,0.163-1.89,0.486c-0.42,0.324-0.63,0.729-0.63,1.21v0.056
        c0,0.315,0.061,0.59,0.183,0.821c0.122,0.231,0.341,0.439,0.659,0.625c0.318,0.186,0.753,0.362,1.305,0.527
        c0.552,0.168,1.248,0.362,2.09,0.586c0.991,0.26,1.875,0.55,2.652,0.876c0.776,0.324,1.431,0.713,1.964,1.167
        c0.533,0.454,0.935,0.987,1.206,1.6c0.271,0.612,0.407,1.344,0.407,2.196v0.056c0,0.965-0.176,1.821-0.528,2.571
        c-0.353,0.752-0.843,1.383-1.474,1.893c-0.631,0.512-1.382,0.898-2.256,1.168C10.343,23.021,9.375,23.157,8.312,23.157"/>
    <path fill="#CE4B27" d="M16.27,5.728h4.903v2.464c0.602-0.811,1.328-1.477,2.177-2c0.85-0.522,1.919-0.784,3.209-0.784
        c1.01,0,1.989,0.192,2.935,0.577c0.946,0.383,1.785,0.954,2.517,1.711c0.73,0.757,1.316,1.686,1.757,2.784s0.662,2.362,0.662,3.792
        v0.063c0,1.431-0.221,2.692-0.662,3.792s-1.021,2.027-1.742,2.783c-0.721,0.759-1.554,1.329-2.5,1.713
        c-0.947,0.385-1.936,0.577-2.968,0.577c-1.312,0-2.392-0.257-3.242-0.769c-0.85-0.514-1.564-1.109-2.145-1.793V28H16.27V5.728z
         M25.301,19.07c0.581,0,1.123-0.111,1.629-0.336c0.505-0.225,0.952-0.543,1.338-0.959c0.387-0.416,0.694-0.911,0.919-1.488
        c0.226-0.576,0.339-1.227,0.339-1.952v-0.063c0-0.703-0.113-1.349-0.339-1.936c-0.226-0.588-0.532-1.088-0.919-1.505
        c-0.387-0.416-0.833-0.735-1.338-0.959c-0.506-0.224-1.048-0.336-1.629-0.336c-0.581,0-1.124,0.112-1.629,0.336
        s-0.947,0.543-1.323,0.959c-0.376,0.417-0.677,0.917-0.903,1.505c-0.226,0.587-0.339,1.232-0.339,1.936v0.063
        c0,0.704,0.113,1.351,0.339,1.937c0.226,0.588,0.527,1.09,0.903,1.504c0.376,0.416,0.817,0.735,1.323,0.961
        C24.177,18.959,24.72,19.07,25.301,19.07"/>
    <path fill="#CE4B27" d="M44.912,23.264c-1.333,0-2.57-0.229-3.709-0.688c-1.14-0.459-2.124-1.09-2.951-1.889
        c-0.828-0.801-1.479-1.738-1.952-2.816c-0.474-1.077-0.709-2.232-0.709-3.472v-0.064c0-1.237,0.236-2.394,0.709-3.471
        c0.473-1.078,1.129-2.022,1.968-2.833c0.839-0.812,1.827-1.45,2.967-1.92c1.14-0.47,2.387-0.704,3.742-0.704
        c1.333,0,2.569,0.229,3.71,0.688c1.14,0.459,2.123,1.088,2.951,1.888c0.828,0.801,1.479,1.739,1.952,2.815
        c0.473,1.077,0.71,2.236,0.71,3.473v0.063c0,1.236-0.237,2.396-0.71,3.473c-0.473,1.077-1.129,2.021-1.967,2.832
        c-0.839,0.812-1.828,1.45-2.968,1.92C47.514,23.027,46.267,23.264,44.912,23.264 M44.977,19.07c0.71,0,1.338-0.121,1.887-0.366
        c0.548-0.245,1.016-0.582,1.403-1.009c0.386-0.428,0.682-0.924,0.887-1.488c0.204-0.564,0.306-1.168,0.306-1.808v-0.064
        c0-0.64-0.107-1.242-0.322-1.808c-0.215-0.564-0.527-1.066-0.935-1.504c-0.409-0.437-0.888-0.784-1.436-1.04
        C46.218,9.728,45.6,9.6,44.912,9.6c-0.709,0-1.339,0.123-1.887,0.368c-0.549,0.245-1.017,0.581-1.403,1.008
        c-0.387,0.427-0.683,0.923-0.887,1.488c-0.205,0.565-0.306,1.168-0.306,1.808v0.063c0,0.642,0.107,1.243,0.322,1.808
        c0.215,0.566,0.526,1.068,0.935,1.506s0.893,0.783,1.452,1.039C43.697,18.943,44.31,19.07,44.977,19.07"/>
    <path fill="#CE4B27" d="M55.427,5.728h4.903v3.455c0.494-1.193,1.177-2.138,2.048-2.83c0.871-0.694,2.026-1.009,3.467-0.945v5.089
        h-0.258c-1.635,0-2.919,0.491-3.855,1.472c-0.936,0.981-1.403,2.507-1.403,4.576v6.335h-4.903L55.427,5.728L55.427,5.728z"/>
    <path fill="#CE4B27" d="M73.942,23.167c-0.753,0-1.436-0.079-2.048-0.239c-0.613-0.16-1.14-0.441-1.581-0.848
        c-0.441-0.405-0.785-0.939-1.032-1.602c-0.248-0.66-0.371-1.481-0.371-2.463V9.888h-2.064v-4.16h2.064V1.344h4.903v4.384h4.064
        v4.16h-4.064v7.301c0,1.105,0.526,1.658,1.581,1.658c0.86,0,1.666-0.19,2.419-0.576v3.903c-0.516,0.3-1.086,0.54-1.71,0.722
        C75.479,23.076,74.759,23.167,73.942,23.167"/>
    <path fill="#CE4B27" d="M85.94,23.2c-1.226,0-2.479-0.209-3.757-0.624c-1.28-0.417-2.5-1.072-3.662-1.969l2.097-3.2
        c0.946,0.684,1.887,1.194,2.823,1.536c0.935,0.342,1.811,0.512,2.629,0.512c0.709,0,1.23-0.117,1.564-0.352
        c0.333-0.234,0.5-0.545,0.5-0.929v-0.063c0-0.258-0.097-0.48-0.29-0.672c-0.193-0.192-0.457-0.356-0.791-0.496
        c-0.333-0.139-0.715-0.272-1.145-0.399c-0.43-0.129-0.882-0.269-1.354-0.416c-0.602-0.171-1.209-0.379-1.823-0.624
        c-0.613-0.245-1.167-0.566-1.661-0.96c-0.495-0.395-0.898-0.88-1.209-1.457c-0.312-0.575-0.468-1.279-0.468-2.111v-0.064
        c0-0.875,0.167-1.647,0.5-2.32c0.333-0.671,0.785-1.242,1.355-1.712c0.569-0.469,1.242-0.82,2.016-1.056
        c0.773-0.234,1.591-0.352,2.451-0.352c1.097,0,2.209,0.176,3.339,0.527c1.129,0.354,2.166,0.838,3.112,1.457l-1.871,3.359
        c-0.86-0.49-1.699-0.88-2.516-1.167c-0.817-0.289-1.538-0.433-2.161-0.433c-0.603,0-1.054,0.111-1.354,0.335
        c-0.302,0.226-0.452,0.508-0.452,0.849v0.064c0,0.234,0.097,0.441,0.291,0.624c0.193,0.181,0.452,0.352,0.774,0.512
        c0.323,0.159,0.693,0.31,1.113,0.447c0.419,0.14,0.865,0.295,1.338,0.465c0.602,0.192,1.214,0.422,1.839,0.688
        c0.623,0.266,1.182,0.591,1.677,0.976c0.495,0.384,0.903,0.854,1.226,1.407c0.323,0.557,0.484,1.227,0.484,2.018v0.062
        c0,0.96-0.167,1.787-0.5,2.48c-0.334,0.692-0.802,1.264-1.403,1.711c-0.602,0.447-1.301,0.785-2.097,1.008
        C87.758,23.088,86.886,23.2,85.94,23.2"/>
    <path fill="#1E1B1C" d="M94.227,3.445h8.423c1.211,0,2.291,0.172,3.231,0.514c0.942,0.343,1.722,0.819,2.337,1.43
        c0.485,0.481,0.858,1.047,1.119,1.694c0.262,0.647,0.393,1.359,0.393,2.137v0.057c0,0.796-0.131,1.512-0.393,2.15
        c-0.261,0.64-0.629,1.194-1.105,1.666c-0.476,0.473-1.039,0.86-1.692,1.166s-1.362,0.533-2.127,0.681l6.017,7.939h-2.714
        l-5.681-7.551h-0.057h-5.541v7.551h-2.211V3.445z M102.469,13.356c0.729,0,1.403-0.092,2.021-0.277
        c0.617-0.185,1.15-0.449,1.599-0.791c0.449-0.342,0.8-0.759,1.052-1.25c0.252-0.489,0.379-1.049,0.379-1.679V9.303
        c0-1.202-0.439-2.142-1.318-2.817c-0.879-0.675-2.113-1.013-3.703-1.013h-6.06v7.884L102.469,13.356L102.469,13.356z"/>
    <path fill="#1E1B1C" d="M113.266,17.951c0.344,0.684,0.785,1.259,1.323,1.729c0.537,0.471,1.14,0.827,1.806,1.072
        s1.365,0.367,2.098,0.367c1.162,0,2.154-0.213,2.982-0.641c0.828-0.427,1.586-0.992,2.274-1.695l1.548,1.377
        c-0.838,0.938-1.795,1.689-2.87,2.255s-2.409,0.849-4,0.849c-1.14,0-2.215-0.207-3.226-0.623c-1.012-0.416-1.893-1.002-2.645-1.761
        c-0.754-0.757-1.351-1.67-1.791-2.737c-0.441-1.064-0.662-2.238-0.662-3.519c0-1.194,0.198-2.32,0.597-3.376
        c0.397-1.057,0.952-1.973,1.661-2.753c0.709-0.778,1.554-1.393,2.531-1.84c0.979-0.448,2.049-0.671,3.209-0.671
        c1.227,0,2.323,0.229,3.291,0.688c0.967,0.459,1.784,1.083,2.451,1.872c0.668,0.789,1.172,1.718,1.516,2.784
        c0.345,1.066,0.518,2.207,0.518,3.424v0.385c0,0.127-0.011,0.286-0.031,0.479H112.62C112.706,16.491,112.922,17.27,113.266,17.951
         M123.33,13.632c-0.064-0.747-0.227-1.456-0.484-2.129c-0.258-0.672-0.607-1.264-1.048-1.775c-0.44-0.512-0.979-0.917-1.612-1.216
        c-0.635-0.299-1.36-0.448-2.178-0.448c-0.71,0-1.376,0.139-2,0.416c-0.625,0.277-1.172,0.667-1.645,1.169
        c-0.475,0.5-0.866,1.087-1.178,1.759c-0.312,0.673-0.512,1.414-0.598,2.225L123.33,13.632L123.33,13.632z"/>
    <path fill="#1E1B1C" d="M135.296,23.264c-1.226,0-2.36-0.229-3.403-0.688c-1.043-0.459-1.945-1.077-2.709-1.855
        c-0.763-0.779-1.359-1.691-1.789-2.736c-0.431-1.045-0.646-2.146-0.646-3.297v-0.062c0-1.174,0.215-2.282,0.646-3.329
        c0.43-1.044,1.026-1.962,1.789-2.751c0.765-0.789,1.668-1.413,2.709-1.872c1.043-0.459,2.178-0.688,3.403-0.688
        c0.795,0,1.517,0.075,2.161,0.227c0.645,0.15,1.236,0.362,1.773,0.634c0.537,0.27,1.033,0.59,1.484,0.957
        c0.451,0.366,0.871,0.753,1.258,1.157l-1.645,1.729c-0.667-0.683-1.393-1.27-2.178-1.761c-0.784-0.49-1.748-0.735-2.887-0.735
        c-0.838,0-1.623,0.164-2.354,0.494c-0.73,0.331-1.365,0.782-1.903,1.356c-0.538,0.576-0.957,1.251-1.258,2.028
        c-0.301,0.776-0.451,1.612-0.451,2.505v0.064c0,0.894,0.156,1.729,0.468,2.504c0.312,0.777,0.741,1.459,1.291,2.045
        c0.547,0.584,1.197,1.041,1.951,1.371c0.752,0.33,1.559,0.494,2.419,0.494c1.075,0,2.026-0.234,2.854-0.703
        s1.574-1.056,2.242-1.761l1.58,1.472c-0.838,0.94-1.791,1.707-2.854,2.307C138.184,22.965,136.866,23.264,135.296,23.264"/>
    <path fill="#1E1B1C" d="M143.779,6.336h2.484v4.319c0.301-0.682,0.676-1.312,1.127-1.888c0.452-0.576,0.969-1.072,1.549-1.488
        c0.582-0.416,1.215-0.735,1.903-0.96c0.688-0.224,1.431-0.314,2.226-0.271v2.655h-0.193c-0.902,0-1.758,0.16-2.564,0.479
        c-0.806,0.321-1.511,0.801-2.112,1.44c-0.603,0.641-1.075,1.43-1.419,2.368c-0.344,0.939-0.516,2.037-0.516,3.296v6.592h-2.484
        V6.336L143.779,6.336z"/>
    <path fill="#1E1B1C" d="M160.552,23.23c-1.011,0-1.909-0.158-2.692-0.479c-0.785-0.319-1.451-0.771-2-1.358
        s-0.967-1.285-1.258-2.097s-0.436-1.706-0.436-2.688V6.336h2.482v9.686c0,1.539,0.398,2.758,1.193,3.655s1.936,1.347,3.42,1.347
        c0.709,0,1.37-0.121,1.983-0.367c0.612-0.246,1.14-0.6,1.581-1.061c0.439-0.459,0.79-1.01,1.048-1.65s0.387-1.346,0.387-2.116
        V6.336h2.452v16.543h-2.452v-2.88c-0.559,0.897-1.29,1.659-2.192,2.288C163.165,22.916,161.993,23.23,160.552,23.23"/>
    <path fill="#1E1B1C" d="M171.938,0h2.838v2.719h-2.838V0z M172.1,6.336h2.484v16.543H172.1V6.336z"/>
    <path fill="#1E1B1C" d="M183.518,23.167c-0.666,0-1.289-0.085-1.871-0.255c-0.58-0.17-1.08-0.441-1.5-0.812
        c-0.418-0.373-0.748-0.857-0.983-1.453c-0.235-0.597-0.354-1.311-0.354-2.142V8.544h-2.322V6.336h2.322V1.344h2.483v4.992h5.29
        v2.208h-5.29v9.664c0,1.022,0.258,1.737,0.774,2.144c0.516,0.405,1.192,0.607,2.031,0.607c0.43,0,0.834-0.045,1.211-0.135
        c0.375-0.09,0.778-0.248,1.209-0.473v2.111c-0.432,0.234-0.888,0.41-1.371,0.527C184.663,23.109,184.119,23.167,183.518,23.167"/>
    <path fill="#1E1B1C" d="M194.064,23.2c-1.205,0-2.418-0.22-3.645-0.657s-2.312-1.027-3.258-1.775l1.258-1.76
        c0.903,0.684,1.844,1.205,2.822,1.567s1.962,0.544,2.951,0.544c1.011,0,1.839-0.234,2.483-0.703
        c0.646-0.471,0.968-1.109,0.968-1.921v-0.063c0-0.427-0.112-0.783-0.338-1.07c-0.227-0.289-0.533-0.545-0.92-0.77
        C196,16.368,195.561,16.17,195.064,16c-0.494-0.171-1.021-0.332-1.58-0.48c-0.646-0.191-1.297-0.398-1.951-0.623
        c-0.656-0.225-1.248-0.506-1.774-0.848c-0.526-0.343-0.957-0.77-1.29-1.281c-0.332-0.513-0.5-1.152-0.5-1.92v-0.064
        c0-0.704,0.141-1.349,0.42-1.936c0.279-0.587,0.672-1.089,1.178-1.505c0.504-0.415,1.106-0.735,1.807-0.96
        c0.697-0.224,1.456-0.335,2.273-0.335c1.033,0,2.076,0.165,3.129,0.495c1.054,0.331,2.01,0.774,2.871,1.328l-1.129,1.856
        c-0.773-0.49-1.586-0.88-2.436-1.169c-0.85-0.287-1.684-0.432-2.5-0.432c-0.989,0-1.773,0.229-2.354,0.688
        c-0.582,0.46-0.871,1.029-0.871,1.712v0.064c0,0.384,0.117,0.72,0.354,1.008c0.236,0.288,0.554,0.539,0.952,0.751
        c0.396,0.215,0.854,0.406,1.371,0.577c0.516,0.17,1.054,0.341,1.613,0.513c0.646,0.191,1.285,0.404,1.918,0.639
        c0.635,0.234,1.209,0.533,1.727,0.896c0.516,0.361,0.93,0.799,1.242,1.312C199.844,16.8,200,17.43,200,18.176v0.063
        c0,0.79-0.156,1.487-0.468,2.096c-0.312,0.606-0.731,1.126-1.259,1.552c-0.526,0.428-1.149,0.754-1.871,0.978
        C195.684,23.088,194.902,23.2,194.064,23.2"/>
</g>
</svg>
